<svg width="904" height="310" viewBox="0 0 904 310" fill="none" xmlns="http://www.w3.org/2000/svg">
<ellipse cx="768.887" cy="236.397" rx="70.5" ry="60" transform="rotate(7.11711 768.887 236.397)" fill="#53BADB"/>
<path d="M704.384 34.4379L740.057 16.1275L846.708 276.101L806.186 290.068L755.285 162.253L704.384 34.4379Z" fill="#53BADB"/>
<path d="M740.552 16.8082L774.356 34.4699L872.833 271.546L844.182 275.023L740.552 16.8082Z" fill="#51C8EE"/>
<ellipse cx="757.491" cy="235.32" rx="22" ry="18" transform="rotate(-19.4695 757.491 235.32)" fill="white"/>
<path d="M6.60352 200.725L6.98633 203.35L7.54688 200.984L11.4844 187.094H13.6992L17.541 200.984L18.0879 203.391L18.5117 200.711L21.6016 187.094H24.2402L19.4141 207H17.0215L12.9199 192.494L12.6055 190.977L12.291 192.494L8.03906 207H5.64648L0.833984 187.094H3.45898L6.60352 200.725ZM32.4707 207.273C30.4655 207.273 28.834 206.617 27.5762 205.305C26.3184 203.983 25.6895 202.219 25.6895 200.014V199.549C25.6895 198.081 25.9674 196.773 26.5234 195.625C27.0885 194.467 27.8724 193.565 28.875 192.918C29.8867 192.262 30.9805 191.934 32.1562 191.934C34.0794 191.934 35.5742 192.567 36.6406 193.834C37.707 195.101 38.2402 196.915 38.2402 199.275V200.328H28.2188C28.2552 201.786 28.679 202.967 29.4902 203.869C30.3105 204.762 31.3496 205.209 32.6074 205.209C33.5007 205.209 34.2572 205.027 34.877 204.662C35.4967 204.298 36.0391 203.814 36.5039 203.213L38.0488 204.416C36.8092 206.321 34.9499 207.273 32.4707 207.273ZM32.1562 194.012C31.1354 194.012 30.2786 194.385 29.5859 195.133C28.8932 195.871 28.4648 196.91 28.3008 198.25H35.7109V198.059C35.638 196.773 35.2917 195.78 34.6719 195.078C34.0521 194.367 33.2135 194.012 32.1562 194.012ZM43.9277 207H41.3984V186H43.9277V207ZM53.9219 205.209C54.8242 205.209 55.6126 204.936 56.2871 204.389C56.9616 203.842 57.3353 203.158 57.4082 202.338H59.8008C59.7552 203.186 59.4635 203.992 58.9258 204.758C58.388 205.523 57.668 206.134 56.7656 206.59C55.8724 207.046 54.9245 207.273 53.9219 207.273C51.9076 207.273 50.3034 206.604 49.1094 205.264C47.9245 203.915 47.332 202.074 47.332 199.74V199.316C47.332 197.876 47.5964 196.596 48.125 195.475C48.6536 194.354 49.4102 193.483 50.3945 192.863C51.388 192.243 52.5592 191.934 53.9082 191.934C55.5671 191.934 56.9434 192.43 58.0371 193.424C59.14 194.417 59.7279 195.707 59.8008 197.293H57.4082C57.3353 196.336 56.9707 195.552 56.3145 194.941C55.6673 194.322 54.8652 194.012 53.9082 194.012C52.623 194.012 51.625 194.477 50.9141 195.406C50.2122 196.327 49.8613 197.662 49.8613 199.412V199.891C49.8613 201.595 50.2122 202.908 50.9141 203.828C51.6159 204.749 52.6185 205.209 53.9219 205.209ZM61.9746 199.467C61.9746 198.018 62.2572 196.714 62.8223 195.557C63.3965 194.399 64.1895 193.506 65.2012 192.877C66.222 192.248 67.3841 191.934 68.6875 191.934C70.7018 191.934 72.3288 192.631 73.5684 194.025C74.8171 195.42 75.4414 197.275 75.4414 199.59V199.768C75.4414 201.208 75.1634 202.502 74.6074 203.65C74.0605 204.79 73.2721 205.678 72.2422 206.316C71.2214 206.954 70.0456 207.273 68.7148 207.273C66.7096 207.273 65.0827 206.576 63.834 205.182C62.5944 203.787 61.9746 201.941 61.9746 199.645V199.467ZM64.5176 199.768C64.5176 201.408 64.8958 202.725 65.6523 203.719C66.418 204.712 67.4388 205.209 68.7148 205.209C70 205.209 71.0208 204.708 71.7773 203.705C72.5339 202.693 72.9121 201.281 72.9121 199.467C72.9121 197.844 72.5247 196.532 71.75 195.529C70.9844 194.518 69.9635 194.012 68.6875 194.012C67.4388 194.012 66.4316 194.508 65.666 195.502C64.9004 196.495 64.5176 197.917 64.5176 199.768ZM80.9922 192.207L81.0605 193.848C82.1452 192.572 83.6081 191.934 85.4492 191.934C87.5182 191.934 88.9264 192.727 89.6738 194.312C90.166 193.602 90.804 193.027 91.5879 192.59C92.3809 192.152 93.3151 191.934 94.3906 191.934C97.6354 191.934 99.2852 193.652 99.3398 197.088V207H96.8105V197.238C96.8105 196.181 96.569 195.393 96.0859 194.873C95.6029 194.344 94.7917 194.08 93.6523 194.08C92.7135 194.08 91.9342 194.363 91.3145 194.928C90.6947 195.484 90.3346 196.236 90.2344 197.184V207H87.6914V197.307C87.6914 195.156 86.6387 194.08 84.5332 194.08C82.8743 194.08 81.7396 194.786 81.1289 196.199V207H78.5996V192.207H80.9922ZM109.307 207.273C107.301 207.273 105.67 206.617 104.412 205.305C103.154 203.983 102.525 202.219 102.525 200.014V199.549C102.525 198.081 102.803 196.773 103.359 195.625C103.924 194.467 104.708 193.565 105.711 192.918C106.723 192.262 107.816 191.934 108.992 191.934C110.915 191.934 112.41 192.567 113.477 193.834C114.543 195.101 115.076 196.915 115.076 199.275V200.328H105.055C105.091 201.786 105.515 202.967 106.326 203.869C107.146 204.762 108.186 205.209 109.443 205.209C110.337 205.209 111.093 205.027 111.713 204.662C112.333 204.298 112.875 203.814 113.34 203.213L114.885 204.416C113.645 206.321 111.786 207.273 109.307 207.273ZM108.992 194.012C107.971 194.012 107.115 194.385 106.422 195.133C105.729 195.871 105.301 196.91 105.137 198.25H112.547V198.059C112.474 196.773 112.128 195.78 111.508 195.078C110.888 194.367 110.049 194.012 108.992 194.012ZM128.393 188.625V192.207H131.154V194.162H128.393V203.336C128.393 203.928 128.516 204.375 128.762 204.676C129.008 204.967 129.427 205.113 130.02 205.113C130.311 205.113 130.712 205.059 131.223 204.949V207C130.557 207.182 129.91 207.273 129.281 207.273C128.151 207.273 127.299 206.932 126.725 206.248C126.15 205.564 125.863 204.594 125.863 203.336V194.162H123.17V192.207H125.863V188.625H128.393ZM133.178 199.467C133.178 198.018 133.46 196.714 134.025 195.557C134.6 194.399 135.393 193.506 136.404 192.877C137.425 192.248 138.587 191.934 139.891 191.934C141.905 191.934 143.532 192.631 144.771 194.025C146.02 195.42 146.645 197.275 146.645 199.59V199.768C146.645 201.208 146.367 202.502 145.811 203.65C145.264 204.79 144.475 205.678 143.445 206.316C142.424 206.954 141.249 207.273 139.918 207.273C137.913 207.273 136.286 206.576 135.037 205.182C133.798 203.787 133.178 201.941 133.178 199.645V199.467ZM135.721 199.768C135.721 201.408 136.099 202.725 136.855 203.719C137.621 204.712 138.642 205.209 139.918 205.209C141.203 205.209 142.224 204.708 142.98 203.705C143.737 202.693 144.115 201.281 144.115 199.467C144.115 197.844 143.728 196.532 142.953 195.529C142.188 194.518 141.167 194.012 139.891 194.012C138.642 194.012 137.635 194.508 136.869 195.502C136.104 196.495 135.721 197.917 135.721 199.768ZM159.141 192.207L159.209 193.848C160.294 192.572 161.757 191.934 163.598 191.934C165.667 191.934 167.075 192.727 167.822 194.312C168.314 193.602 168.952 193.027 169.736 192.59C170.529 192.152 171.464 191.934 172.539 191.934C175.784 191.934 177.434 193.652 177.488 197.088V207H174.959V197.238C174.959 196.181 174.717 195.393 174.234 194.873C173.751 194.344 172.94 194.08 171.801 194.08C170.862 194.08 170.083 194.363 169.463 194.928C168.843 195.484 168.483 196.236 168.383 197.184V207H165.84V197.307C165.84 195.156 164.787 194.08 162.682 194.08C161.023 194.08 159.888 194.786 159.277 196.199V207H156.748V192.207H159.141ZM186.156 203.295L189.602 192.207H192.309L186.361 209.283C185.441 211.744 183.978 212.975 181.973 212.975L181.494 212.934L180.551 212.756V210.705L181.234 210.76C182.091 210.76 182.757 210.587 183.23 210.24C183.714 209.894 184.11 209.26 184.42 208.34L184.98 206.836L179.703 192.207H182.465L186.156 203.295ZM208.674 194.477C208.291 194.413 207.876 194.381 207.43 194.381C205.771 194.381 204.645 195.087 204.053 196.5V207H201.523V192.207H203.984L204.025 193.916C204.855 192.594 206.031 191.934 207.553 191.934C208.045 191.934 208.419 191.997 208.674 192.125V194.477ZM216.877 207.273C214.872 207.273 213.24 206.617 211.982 205.305C210.725 203.983 210.096 202.219 210.096 200.014V199.549C210.096 198.081 210.374 196.773 210.93 195.625C211.495 194.467 212.279 193.565 213.281 192.918C214.293 192.262 215.387 191.934 216.562 191.934C218.486 191.934 219.98 192.567 221.047 193.834C222.113 195.101 222.646 196.915 222.646 199.275V200.328H212.625C212.661 201.786 213.085 202.967 213.896 203.869C214.717 204.762 215.756 205.209 217.014 205.209C217.907 205.209 218.663 205.027 219.283 204.662C219.903 204.298 220.445 203.814 220.91 203.213L222.455 204.416C221.215 206.321 219.356 207.273 216.877 207.273ZM216.562 194.012C215.542 194.012 214.685 194.385 213.992 195.133C213.299 195.871 212.871 196.91 212.707 198.25H220.117V198.059C220.044 196.773 219.698 195.78 219.078 195.078C218.458 194.367 217.62 194.012 216.562 194.012ZM238.082 199.768C238.082 202.019 237.567 203.833 236.537 205.209C235.507 206.585 234.113 207.273 232.354 207.273C230.558 207.273 229.145 206.704 228.115 205.564V212.688H225.586V192.207H227.896L228.02 193.848C229.049 192.572 230.48 191.934 232.312 191.934C234.09 191.934 235.493 192.604 236.523 193.943C237.562 195.283 238.082 197.147 238.082 199.535V199.768ZM235.553 199.48C235.553 197.812 235.197 196.495 234.486 195.529C233.775 194.563 232.8 194.08 231.561 194.08C230.029 194.08 228.881 194.759 228.115 196.117V203.186C228.872 204.535 230.029 205.209 231.588 205.209C232.8 205.209 233.762 204.73 234.473 203.773C235.193 202.807 235.553 201.376 235.553 199.48ZM240.639 199.467C240.639 198.018 240.921 196.714 241.486 195.557C242.061 194.399 242.854 193.506 243.865 192.877C244.886 192.248 246.048 191.934 247.352 191.934C249.366 191.934 250.993 192.631 252.232 194.025C253.481 195.42 254.105 197.275 254.105 199.59V199.768C254.105 201.208 253.827 202.502 253.271 203.65C252.725 204.79 251.936 205.678 250.906 206.316C249.885 206.954 248.71 207.273 247.379 207.273C245.374 207.273 243.747 206.576 242.498 205.182C241.258 203.787 240.639 201.941 240.639 199.645V199.467ZM243.182 199.768C243.182 201.408 243.56 202.725 244.316 203.719C245.082 204.712 246.103 205.209 247.379 205.209C248.664 205.209 249.685 204.708 250.441 203.705C251.198 202.693 251.576 201.281 251.576 199.467C251.576 197.844 251.189 196.532 250.414 195.529C249.648 194.518 248.628 194.012 247.352 194.012C246.103 194.012 245.096 194.508 244.33 195.502C243.564 196.495 243.182 197.917 243.182 199.768ZM257.332 205.674C257.332 205.236 257.46 204.872 257.715 204.58C257.979 204.288 258.371 204.143 258.891 204.143C259.41 204.143 259.802 204.288 260.066 204.58C260.34 204.872 260.477 205.236 260.477 205.674C260.477 206.093 260.34 206.444 260.066 206.727C259.802 207.009 259.41 207.15 258.891 207.15C258.371 207.15 257.979 207.009 257.715 206.727C257.46 206.444 257.332 206.093 257.332 205.674ZM6.79492 256.568L10.459 245.207H13.043L7.73828 260H5.81055L0.451172 245.207H3.03516L6.79492 256.568ZM18.2246 260H15.6953V245.207H18.2246V260ZM15.4902 241.283C15.4902 240.873 15.6133 240.527 15.8594 240.244C16.1146 239.962 16.4883 239.82 16.9805 239.82C17.4727 239.82 17.8464 239.962 18.1016 240.244C18.3568 240.527 18.4844 240.873 18.4844 241.283C18.4844 241.693 18.3568 242.035 18.1016 242.309C17.8464 242.582 17.4727 242.719 16.9805 242.719C16.4883 242.719 16.1146 242.582 15.8594 242.309C15.6133 242.035 15.4902 241.693 15.4902 241.283ZM30.8984 256.076C30.8984 255.393 30.6387 254.864 30.1191 254.49C29.6087 254.107 28.7109 253.779 27.4258 253.506C26.1497 253.232 25.1335 252.904 24.377 252.521C23.6296 252.139 23.0736 251.683 22.709 251.154C22.3535 250.626 22.1758 249.997 22.1758 249.268C22.1758 248.055 22.6862 247.03 23.707 246.191C24.737 245.353 26.0495 244.934 27.6445 244.934C29.3216 244.934 30.6797 245.367 31.7188 246.232C32.7669 247.098 33.291 248.206 33.291 249.555H30.748C30.748 248.862 30.4518 248.265 29.8594 247.764C29.276 247.262 28.5378 247.012 27.6445 247.012C26.724 247.012 26.0039 247.212 25.4844 247.613C24.9648 248.014 24.7051 248.538 24.7051 249.186C24.7051 249.796 24.9466 250.257 25.4297 250.566C25.9128 250.876 26.7832 251.173 28.041 251.455C29.3079 251.738 30.3333 252.075 31.1172 252.467C31.901 252.859 32.4798 253.333 32.8535 253.889C33.2363 254.436 33.4277 255.105 33.4277 255.898C33.4277 257.22 32.8991 258.282 31.8418 259.084C30.7845 259.877 29.4128 260.273 27.7266 260.273C26.5417 260.273 25.4935 260.064 24.582 259.645C23.6706 259.225 22.9551 258.642 22.4355 257.895C21.9251 257.138 21.6699 256.322 21.6699 255.447H24.1992C24.2448 256.295 24.582 256.969 25.2109 257.471C25.849 257.963 26.6875 258.209 27.7266 258.209C28.6836 258.209 29.4492 258.018 30.0234 257.635C30.6068 257.243 30.8984 256.723 30.8984 256.076ZM39.4707 260H36.9414V245.207H39.4707V260ZM36.7363 241.283C36.7363 240.873 36.8594 240.527 37.1055 240.244C37.3607 239.962 37.7344 239.82 38.2266 239.82C38.7188 239.82 39.0924 239.962 39.3477 240.244C39.6029 240.527 39.7305 240.873 39.7305 241.283C39.7305 241.693 39.6029 242.035 39.3477 242.309C39.0924 242.582 38.7188 242.719 38.2266 242.719C37.7344 242.719 37.3607 242.582 37.1055 242.309C36.8594 242.035 36.7363 241.693 36.7363 241.283ZM46.9629 241.625V245.207H49.7246V247.162H46.9629V256.336C46.9629 256.928 47.0859 257.375 47.332 257.676C47.5781 257.967 47.9974 258.113 48.5898 258.113C48.8815 258.113 49.2826 258.059 49.793 257.949V260C49.1276 260.182 48.4805 260.273 47.8516 260.273C46.7214 260.273 45.8691 259.932 45.2949 259.248C44.7207 258.564 44.4336 257.594 44.4336 256.336V247.162H41.7402V245.207H44.4336V241.625H46.9629ZM358.107 241.625V245.207H360.869V247.162H358.107V256.336C358.107 256.928 358.23 257.375 358.477 257.676C358.723 257.967 359.142 258.113 359.734 258.113C360.026 258.113 360.427 258.059 360.938 257.949V260C360.272 260.182 359.625 260.273 358.996 260.273C357.866 260.273 357.014 259.932 356.439 259.248C355.865 258.564 355.578 257.594 355.578 256.336V247.162H352.885V245.207H355.578V241.625H358.107ZM362.893 252.467C362.893 251.018 363.175 249.714 363.74 248.557C364.314 247.399 365.107 246.506 366.119 245.877C367.14 245.248 368.302 244.934 369.605 244.934C371.62 244.934 373.247 245.631 374.486 247.025C375.735 248.42 376.359 250.275 376.359 252.59V252.768C376.359 254.208 376.081 255.502 375.525 256.65C374.979 257.79 374.19 258.678 373.16 259.316C372.139 259.954 370.964 260.273 369.633 260.273C367.628 260.273 366.001 259.576 364.752 258.182C363.512 256.787 362.893 254.941 362.893 252.645V252.467ZM365.436 252.768C365.436 254.408 365.814 255.725 366.57 256.719C367.336 257.712 368.357 258.209 369.633 258.209C370.918 258.209 371.939 257.708 372.695 256.705C373.452 255.693 373.83 254.281 373.83 252.467C373.83 250.844 373.443 249.532 372.668 248.529C371.902 247.518 370.882 247.012 369.605 247.012C368.357 247.012 367.35 247.508 366.584 248.502C365.818 249.495 365.436 250.917 365.436 252.768ZM390.605 253.15L389.02 254.805V260H386.49V239H389.02V251.701L390.373 250.074L394.98 245.207H398.057L392.301 251.387L398.727 260H395.76L390.605 253.15ZM403.061 245.207L403.143 247.066C404.273 245.645 405.749 244.934 407.572 244.934C410.699 244.934 412.275 246.697 412.303 250.225V260H409.773V250.211C409.764 249.145 409.518 248.356 409.035 247.846C408.561 247.335 407.818 247.08 406.807 247.08C405.986 247.08 405.266 247.299 404.646 247.736C404.027 248.174 403.544 248.748 403.197 249.459V260H400.668V245.207H403.061ZM415.447 252.467C415.447 251.018 415.73 249.714 416.295 248.557C416.869 247.399 417.662 246.506 418.674 245.877C419.695 245.248 420.857 244.934 422.16 244.934C424.174 244.934 425.801 245.631 427.041 247.025C428.29 248.42 428.914 250.275 428.914 252.59V252.768C428.914 254.208 428.636 255.502 428.08 256.65C427.533 257.79 426.745 258.678 425.715 259.316C424.694 259.954 423.518 260.273 422.188 260.273C420.182 260.273 418.555 259.576 417.307 258.182C416.067 256.787 415.447 254.941 415.447 252.645V252.467ZM417.99 252.768C417.99 254.408 418.368 255.725 419.125 256.719C419.891 257.712 420.911 258.209 422.188 258.209C423.473 258.209 424.493 257.708 425.25 256.705C426.007 255.693 426.385 254.281 426.385 252.467C426.385 250.844 425.997 249.532 425.223 248.529C424.457 247.518 423.436 247.012 422.16 247.012C420.911 247.012 419.904 247.508 419.139 248.502C418.373 249.495 417.99 250.917 417.99 252.768ZM445.184 256.514L448.027 245.207H450.557L446.25 260H444.199L440.604 248.789L437.104 260H435.053L430.76 245.207H433.275L436.188 256.281L439.633 245.207H441.67L445.184 256.514ZM469.219 260C469.073 259.708 468.954 259.189 468.863 258.441C467.688 259.663 466.284 260.273 464.652 260.273C463.194 260.273 461.995 259.863 461.057 259.043C460.127 258.214 459.662 257.165 459.662 255.898C459.662 254.358 460.245 253.164 461.412 252.316C462.588 251.46 464.238 251.031 466.361 251.031H468.822V249.869C468.822 248.985 468.558 248.283 468.029 247.764C467.501 247.235 466.721 246.971 465.691 246.971C464.789 246.971 464.033 247.199 463.422 247.654C462.811 248.11 462.506 248.661 462.506 249.309H459.963C459.963 248.57 460.223 247.859 460.742 247.176C461.271 246.483 461.982 245.936 462.875 245.535C463.777 245.134 464.766 244.934 465.842 244.934C467.546 244.934 468.882 245.362 469.848 246.219C470.814 247.066 471.315 248.238 471.352 249.732V256.541C471.352 257.899 471.525 258.979 471.871 259.781V260H469.219ZM465.021 258.072C465.814 258.072 466.566 257.867 467.277 257.457C467.988 257.047 468.503 256.514 468.822 255.857V252.822H466.84C463.741 252.822 462.191 253.729 462.191 255.543C462.191 256.336 462.456 256.956 462.984 257.402C463.513 257.849 464.192 258.072 465.021 258.072ZM487.84 252.768C487.84 255.028 487.32 256.846 486.281 258.223C485.242 259.59 483.848 260.273 482.098 260.273C480.229 260.273 478.785 259.613 477.764 258.291L477.641 260H475.316V239H477.846V246.834C478.867 245.567 480.275 244.934 482.07 244.934C483.866 244.934 485.274 245.613 486.295 246.971C487.325 248.329 487.84 250.188 487.84 252.549V252.768ZM485.311 252.48C485.311 250.758 484.978 249.427 484.312 248.488C483.647 247.549 482.69 247.08 481.441 247.08C479.773 247.08 478.575 247.855 477.846 249.404V255.803C478.62 257.352 479.828 258.127 481.469 258.127C482.681 258.127 483.624 257.658 484.299 256.719C484.973 255.78 485.311 254.367 485.311 252.48ZM490.369 252.467C490.369 251.018 490.652 249.714 491.217 248.557C491.791 247.399 492.584 246.506 493.596 245.877C494.617 245.248 495.779 244.934 497.082 244.934C499.096 244.934 500.723 245.631 501.963 247.025C503.212 248.42 503.836 250.275 503.836 252.59V252.768C503.836 254.208 503.558 255.502 503.002 256.65C502.455 257.79 501.667 258.678 500.637 259.316C499.616 259.954 498.44 260.273 497.109 260.273C495.104 260.273 493.477 259.576 492.229 258.182C490.989 256.787 490.369 254.941 490.369 252.645V252.467ZM492.912 252.768C492.912 254.408 493.29 255.725 494.047 256.719C494.812 257.712 495.833 258.209 497.109 258.209C498.395 258.209 499.415 257.708 500.172 256.705C500.928 255.693 501.307 254.281 501.307 252.467C501.307 250.844 500.919 249.532 500.145 248.529C499.379 247.518 498.358 247.012 497.082 247.012C495.833 247.012 494.826 247.508 494.061 248.502C493.295 249.495 492.912 250.917 492.912 252.768ZM516.141 258.537C515.156 259.695 513.712 260.273 511.807 260.273C510.23 260.273 509.027 259.818 508.197 258.906C507.377 257.986 506.962 256.628 506.953 254.832V245.207H509.482V254.764C509.482 257.006 510.394 258.127 512.217 258.127C514.149 258.127 515.434 257.407 516.072 255.967V245.207H518.602V260H516.195L516.141 258.537ZM525.889 241.625V245.207H528.65V247.162H525.889V256.336C525.889 256.928 526.012 257.375 526.258 257.676C526.504 257.967 526.923 258.113 527.516 258.113C527.807 258.113 528.208 258.059 528.719 257.949V260C528.053 260.182 527.406 260.273 526.777 260.273C525.647 260.273 524.795 259.932 524.221 259.248C523.646 258.564 523.359 257.594 523.359 256.336V247.162H520.666V245.207H523.359V241.625H525.889ZM540.941 245.207L541.01 246.848C542.094 245.572 543.557 244.934 545.398 244.934C547.467 244.934 548.876 245.727 549.623 247.312C550.115 246.602 550.753 246.027 551.537 245.59C552.33 245.152 553.264 244.934 554.34 244.934C557.585 244.934 559.234 246.652 559.289 250.088V260H556.76V250.238C556.76 249.181 556.518 248.393 556.035 247.873C555.552 247.344 554.741 247.08 553.602 247.08C552.663 247.08 551.883 247.363 551.264 247.928C550.644 248.484 550.284 249.236 550.184 250.184V260H547.641V250.307C547.641 248.156 546.588 247.08 544.482 247.08C542.824 247.08 541.689 247.786 541.078 249.199V260H538.549V245.207H540.941ZM569.256 260.273C567.251 260.273 565.619 259.617 564.361 258.305C563.104 256.983 562.475 255.219 562.475 253.014V252.549C562.475 251.081 562.753 249.773 563.309 248.625C563.874 247.467 564.658 246.565 565.66 245.918C566.672 245.262 567.766 244.934 568.941 244.934C570.865 244.934 572.359 245.567 573.426 246.834C574.492 248.101 575.025 249.915 575.025 252.275V253.328H565.004C565.04 254.786 565.464 255.967 566.275 256.869C567.096 257.762 568.135 258.209 569.393 258.209C570.286 258.209 571.042 258.027 571.662 257.662C572.282 257.298 572.824 256.814 573.289 256.213L574.834 257.416C573.594 259.321 571.735 260.273 569.256 260.273ZM568.941 247.012C567.921 247.012 567.064 247.385 566.371 248.133C565.678 248.871 565.25 249.91 565.086 251.25H572.496V251.059C572.423 249.773 572.077 248.78 571.457 248.078C570.837 247.367 569.999 247.012 568.941 247.012Z" fill="black"/>
<path d="M59.0215 252.48C59.0215 250.211 59.5592 248.388 60.6348 247.012C61.7103 245.626 63.1185 244.934 64.8594 244.934C66.5911 244.934 67.9629 245.526 68.9746 246.711V239H71.5039V260H69.1797L69.0566 258.414C68.0449 259.654 66.6367 260.273 64.832 260.273C63.1185 260.273 61.7194 259.572 60.6348 258.168C59.5592 256.764 59.0215 254.932 59.0215 252.672V252.48ZM61.5508 252.768C61.5508 254.445 61.8971 255.757 62.5898 256.705C63.2826 257.653 64.2396 258.127 65.4609 258.127C67.0651 258.127 68.2363 257.407 68.9746 255.967V249.172C68.2181 247.777 67.056 247.08 65.4883 247.08C64.2487 247.08 63.2826 247.559 62.5898 248.516C61.8971 249.473 61.5508 250.89 61.5508 252.768ZM78.1895 260H75.6602V245.207H78.1895V260ZM75.4551 241.283C75.4551 240.873 75.5781 240.527 75.8242 240.244C76.0794 239.962 76.4531 239.82 76.9453 239.82C77.4375 239.82 77.8112 239.962 78.0664 240.244C78.3216 240.527 78.4492 240.873 78.4492 241.283C78.4492 241.693 78.3216 242.035 78.0664 242.309C77.8112 242.582 77.4375 242.719 76.9453 242.719C76.4531 242.719 76.0794 242.582 75.8242 242.309C75.5781 242.035 75.4551 241.693 75.4551 241.283ZM84.998 260H82.4688V239H84.998V260ZM95.1973 260.273C93.1921 260.273 91.5605 259.617 90.3027 258.305C89.0449 256.983 88.416 255.219 88.416 253.014V252.549C88.416 251.081 88.694 249.773 89.25 248.625C89.8151 247.467 90.599 246.565 91.6016 245.918C92.6133 245.262 93.707 244.934 94.8828 244.934C96.806 244.934 98.3008 245.567 99.3672 246.834C100.434 248.101 100.967 249.915 100.967 252.275V253.328H90.9453C90.9818 254.786 91.4056 255.967 92.2168 256.869C93.0371 257.762 94.0762 258.209 95.334 258.209C96.2272 258.209 96.9837 258.027 97.6035 257.662C98.2233 257.298 98.7656 256.814 99.2305 256.213L100.775 257.416C99.5358 259.321 97.6764 260.273 95.1973 260.273ZM94.8828 247.012C93.862 247.012 93.0052 247.385 92.3125 248.133C91.6198 248.871 91.1914 249.91 91.0273 251.25H98.4375V251.059C98.3646 249.773 98.0182 248.78 97.3984 248.078C96.7786 247.367 95.9401 247.012 94.8828 247.012ZM110.045 260.273C108.04 260.273 106.408 259.617 105.15 258.305C103.893 256.983 103.264 255.219 103.264 253.014V252.549C103.264 251.081 103.542 249.773 104.098 248.625C104.663 247.467 105.447 246.565 106.449 245.918C107.461 245.262 108.555 244.934 109.73 244.934C111.654 244.934 113.148 245.567 114.215 246.834C115.281 248.101 115.814 249.915 115.814 252.275V253.328H105.793C105.829 254.786 106.253 255.967 107.064 256.869C107.885 257.762 108.924 258.209 110.182 258.209C111.075 258.209 111.831 258.027 112.451 257.662C113.071 257.298 113.613 256.814 114.078 256.213L115.623 257.416C114.383 259.321 112.524 260.273 110.045 260.273ZM109.73 247.012C108.71 247.012 107.853 247.385 107.16 248.133C106.467 248.871 106.039 249.91 105.875 251.25H113.285V251.059C113.212 249.773 112.866 248.78 112.246 248.078C111.626 247.367 110.788 247.012 109.73 247.012ZM131.25 252.768C131.25 255.019 130.735 256.833 129.705 258.209C128.675 259.585 127.281 260.273 125.521 260.273C123.726 260.273 122.313 259.704 121.283 258.564V265.688H118.754V245.207H121.064L121.188 246.848C122.217 245.572 123.648 244.934 125.48 244.934C127.258 244.934 128.661 245.604 129.691 246.943C130.73 248.283 131.25 250.147 131.25 252.535V252.768ZM128.721 252.48C128.721 250.812 128.365 249.495 127.654 248.529C126.943 247.563 125.968 247.08 124.729 247.08C123.197 247.08 122.049 247.759 121.283 249.117V256.186C122.04 257.535 123.197 258.209 124.756 258.209C125.968 258.209 126.93 257.73 127.641 256.773C128.361 255.807 128.721 254.376 128.721 252.48ZM143.609 260C143.464 259.708 143.345 259.189 143.254 258.441C142.078 259.663 140.674 260.273 139.043 260.273C137.585 260.273 136.386 259.863 135.447 259.043C134.518 258.214 134.053 257.165 134.053 255.898C134.053 254.358 134.636 253.164 135.803 252.316C136.979 251.46 138.628 251.031 140.752 251.031H143.213V249.869C143.213 248.985 142.949 248.283 142.42 247.764C141.891 247.235 141.112 246.971 140.082 246.971C139.18 246.971 138.423 247.199 137.812 247.654C137.202 248.11 136.896 248.661 136.896 249.309H134.354C134.354 248.57 134.613 247.859 135.133 247.176C135.661 246.483 136.372 245.936 137.266 245.535C138.168 245.134 139.157 244.934 140.232 244.934C141.937 244.934 143.272 245.362 144.238 246.219C145.204 247.066 145.706 248.238 145.742 249.732V256.541C145.742 257.899 145.915 258.979 146.262 259.781V260H143.609ZM139.412 258.072C140.205 258.072 140.957 257.867 141.668 257.457C142.379 257.047 142.894 256.514 143.213 255.857V252.822H141.23C138.132 252.822 136.582 253.729 136.582 255.543C136.582 256.336 136.846 256.956 137.375 257.402C137.904 257.849 138.583 258.072 139.412 258.072ZM153.139 241.625V245.207H155.9V247.162H153.139V256.336C153.139 256.928 153.262 257.375 153.508 257.676C153.754 257.967 154.173 258.113 154.766 258.113C155.057 258.113 155.458 258.059 155.969 257.949V260C155.303 260.182 154.656 260.273 154.027 260.273C152.897 260.273 152.045 259.932 151.471 259.248C150.896 258.564 150.609 257.594 150.609 256.336V247.162H147.916V245.207H150.609V241.625H153.139ZM163.707 256.295L167.152 245.207H169.859L163.912 262.283C162.992 264.744 161.529 265.975 159.523 265.975L159.045 265.934L158.102 265.756V263.705L158.785 263.76C159.642 263.76 160.307 263.587 160.781 263.24C161.264 262.894 161.661 262.26 161.971 261.34L162.531 259.836L157.254 245.207H160.016L163.707 256.295ZM181.043 260C180.897 259.708 180.779 259.189 180.688 258.441C179.512 259.663 178.108 260.273 176.477 260.273C175.018 260.273 173.82 259.863 172.881 259.043C171.951 258.214 171.486 257.165 171.486 255.898C171.486 254.358 172.07 253.164 173.236 252.316C174.412 251.46 176.062 251.031 178.186 251.031H180.646V249.869C180.646 248.985 180.382 248.283 179.854 247.764C179.325 247.235 178.546 246.971 177.516 246.971C176.613 246.971 175.857 247.199 175.246 247.654C174.635 248.11 174.33 248.661 174.33 249.309H171.787C171.787 248.57 172.047 247.859 172.566 247.176C173.095 246.483 173.806 245.936 174.699 245.535C175.602 245.134 176.59 244.934 177.666 244.934C179.37 244.934 180.706 245.362 181.672 246.219C182.638 247.066 183.139 248.238 183.176 249.732V256.541C183.176 257.899 183.349 258.979 183.695 259.781V260H181.043ZM176.846 258.072C177.639 258.072 178.391 257.867 179.102 257.457C179.812 257.047 180.327 256.514 180.646 255.857V252.822H178.664C175.565 252.822 174.016 253.729 174.016 255.543C174.016 256.336 174.28 256.956 174.809 257.402C175.337 257.849 176.016 258.072 176.846 258.072ZM189.52 245.207L189.588 246.848C190.673 245.572 192.135 244.934 193.977 244.934C196.046 244.934 197.454 245.727 198.201 247.312C198.693 246.602 199.331 246.027 200.115 245.59C200.908 245.152 201.842 244.934 202.918 244.934C206.163 244.934 207.812 246.652 207.867 250.088V260H205.338V250.238C205.338 249.181 205.096 248.393 204.613 247.873C204.13 247.344 203.319 247.08 202.18 247.08C201.241 247.08 200.462 247.363 199.842 247.928C199.222 248.484 198.862 249.236 198.762 250.184V260H196.219V250.307C196.219 248.156 195.166 247.08 193.061 247.08C191.402 247.08 190.267 247.786 189.656 249.199V260H187.127V245.207H189.52ZM211.75 258.674C211.75 258.236 211.878 257.872 212.133 257.58C212.397 257.288 212.789 257.143 213.309 257.143C213.828 257.143 214.22 257.288 214.484 257.58C214.758 257.872 214.895 258.236 214.895 258.674C214.895 259.093 214.758 259.444 214.484 259.727C214.22 260.009 213.828 260.15 213.309 260.15C212.789 260.15 212.397 260.009 212.133 259.727C211.878 259.444 211.75 259.093 211.75 258.674ZM221.471 245.207L221.553 247.066C222.683 245.645 224.16 244.934 225.982 244.934C229.109 244.934 230.686 246.697 230.713 250.225V260H228.184V250.211C228.174 249.145 227.928 248.356 227.445 247.846C226.971 247.335 226.229 247.08 225.217 247.08C224.396 247.08 223.676 247.299 223.057 247.736C222.437 248.174 221.954 248.748 221.607 249.459V260H219.078V245.207H221.471ZM240.666 260.273C238.661 260.273 237.029 259.617 235.771 258.305C234.514 256.983 233.885 255.219 233.885 253.014V252.549C233.885 251.081 234.163 249.773 234.719 248.625C235.284 247.467 236.068 246.565 237.07 245.918C238.082 245.262 239.176 244.934 240.352 244.934C242.275 244.934 243.77 245.567 244.836 246.834C245.902 248.101 246.436 249.915 246.436 252.275V253.328H236.414C236.451 254.786 236.874 255.967 237.686 256.869C238.506 257.762 239.545 258.209 240.803 258.209C241.696 258.209 242.452 258.027 243.072 257.662C243.692 257.298 244.234 256.814 244.699 256.213L246.244 257.416C245.005 259.321 243.145 260.273 240.666 260.273ZM240.352 247.012C239.331 247.012 238.474 247.385 237.781 248.133C237.089 248.871 236.66 249.91 236.496 251.25H243.906V251.059C243.833 249.773 243.487 248.78 242.867 248.078C242.247 247.367 241.409 247.012 240.352 247.012ZM252.807 241.625V245.207H255.568V247.162H252.807V256.336C252.807 256.928 252.93 257.375 253.176 257.676C253.422 257.967 253.841 258.113 254.434 258.113C254.725 258.113 255.126 258.059 255.637 257.949V260C254.971 260.182 254.324 260.273 253.695 260.273C252.565 260.273 251.713 259.932 251.139 259.248C250.564 258.564 250.277 257.594 250.277 256.336V247.162H247.584V245.207H250.277V241.625H252.807ZM261.283 260H258.754V239H261.283V260ZM268.092 260H265.562V245.207H268.092V260ZM265.357 241.283C265.357 240.873 265.48 240.527 265.727 240.244C265.982 239.962 266.355 239.82 266.848 239.82C267.34 239.82 267.714 239.962 267.969 240.244C268.224 240.527 268.352 240.873 268.352 241.283C268.352 241.693 268.224 242.035 267.969 242.309C267.714 242.582 267.34 242.719 266.848 242.719C266.355 242.719 265.982 242.582 265.727 242.309C265.48 242.035 265.357 241.693 265.357 241.283ZM273.396 260V247.162H271.059V245.207H273.396V243.689C273.396 242.104 273.82 240.878 274.668 240.012C275.516 239.146 276.714 238.713 278.264 238.713C278.847 238.713 279.426 238.79 280 238.945L279.863 240.996C279.435 240.914 278.979 240.873 278.496 240.873C277.676 240.873 277.042 241.115 276.596 241.598C276.149 242.072 275.926 242.755 275.926 243.648V245.207H279.084V247.162H275.926V260H273.396ZM286.727 256.295L290.172 245.207H292.879L286.932 262.283C286.011 264.744 284.548 265.975 282.543 265.975L282.064 265.934L281.121 265.756V263.705L281.805 263.76C282.661 263.76 283.327 263.587 283.801 263.24C284.284 262.894 284.68 262.26 284.99 261.34L285.551 259.836L280.273 245.207H283.035L286.727 256.295ZM293.727 258.674C293.727 258.236 293.854 257.872 294.109 257.58C294.374 257.288 294.766 257.143 295.285 257.143C295.805 257.143 296.197 257.288 296.461 257.58C296.734 257.872 296.871 258.236 296.871 258.674C296.871 259.093 296.734 259.444 296.461 259.727C296.197 260.009 295.805 260.15 295.285 260.15C294.766 260.15 294.374 260.009 294.109 259.727C293.854 259.444 293.727 259.093 293.727 258.674ZM310.188 260C310.042 259.708 309.923 259.189 309.832 258.441C308.656 259.663 307.253 260.273 305.621 260.273C304.163 260.273 302.964 259.863 302.025 259.043C301.096 258.214 300.631 257.165 300.631 255.898C300.631 254.358 301.214 253.164 302.381 252.316C303.557 251.46 305.206 251.031 307.33 251.031H309.791V249.869C309.791 248.985 309.527 248.283 308.998 247.764C308.469 247.235 307.69 246.971 306.66 246.971C305.758 246.971 305.001 247.199 304.391 247.654C303.78 248.11 303.475 248.661 303.475 249.309H300.932C300.932 248.57 301.191 247.859 301.711 247.176C302.24 246.483 302.951 245.936 303.844 245.535C304.746 245.134 305.735 244.934 306.811 244.934C308.515 244.934 309.85 245.362 310.816 246.219C311.783 247.066 312.284 248.238 312.32 249.732V256.541C312.32 257.899 312.493 258.979 312.84 259.781V260H310.188ZM305.99 258.072C306.783 258.072 307.535 257.867 308.246 257.457C308.957 257.047 309.472 256.514 309.791 255.857V252.822H307.809C304.71 252.822 303.16 253.729 303.16 255.543C303.16 256.336 303.424 256.956 303.953 257.402C304.482 257.849 305.161 258.072 305.99 258.072ZM328.781 252.768C328.781 255.019 328.266 256.833 327.236 258.209C326.206 259.585 324.812 260.273 323.053 260.273C321.257 260.273 319.844 259.704 318.814 258.564V265.688H316.285V245.207H318.596L318.719 246.848C319.749 245.572 321.18 244.934 323.012 244.934C324.789 244.934 326.193 245.604 327.223 246.943C328.262 248.283 328.781 250.147 328.781 252.535V252.768ZM326.252 252.48C326.252 250.812 325.896 249.495 325.186 248.529C324.475 247.563 323.499 247.08 322.26 247.08C320.729 247.08 319.58 247.759 318.814 249.117V256.186C319.571 257.535 320.729 258.209 322.287 258.209C323.499 258.209 324.461 257.73 325.172 256.773C325.892 255.807 326.252 254.376 326.252 252.48ZM344.504 252.768C344.504 255.019 343.989 256.833 342.959 258.209C341.929 259.585 340.535 260.273 338.775 260.273C336.98 260.273 335.567 259.704 334.537 258.564V265.688H332.008V245.207H334.318L334.441 246.848C335.471 245.572 336.902 244.934 338.734 244.934C340.512 244.934 341.915 245.604 342.945 246.943C343.984 248.283 344.504 250.147 344.504 252.535V252.768ZM341.975 252.48C341.975 250.812 341.619 249.495 340.908 248.529C340.197 247.563 339.222 247.08 337.982 247.08C336.451 247.08 335.303 247.759 334.537 249.117V256.186C335.294 257.535 336.451 258.209 338.01 258.209C339.222 258.209 340.184 257.73 340.895 256.773C341.615 255.807 341.975 254.376 341.975 252.48Z" fill="#0B6886"/>
</svg>
